# xmcd CD database file
#
# Track frame offsets:
#	225
#	26443
#	45926
#	62925
#	81887
#	108679
#	111056
#	118650
#	123730
#	127470
#	136008
#	140400
#	170768
#
# Disc length: 2600 seconds
#
# Revision: 1
# Processed by: cddbd v1.5.1PL0 Copyright (c) Steve Scherf et al.
# Submitted via: CDex 1.51
#
DISCID=c10a250d
DTITLE=Ensemble Indigo - Reflection
DYEAR=2000
DGENRE=Jazz
TTITLE0=Warm Canto
TTITLE1=Reflexe_Allegro appassionato
TTITLE2=Reflexe_Adagio Sostenuto
TTITLE3=Reflexe_Allegro assa
TTITLE4=Valinor
TTITLE5=Musical Toys_Mechanical Accordion
TTITLE6=Musical Toys_The Trumpeter In The Forest
TTITLE7=Musical Toys_A Bear Playing Double Bass And The Black Woman
TTITLE8=Musical Toys_April Day
TTITLE9=Musical Toys_Song Of The Fisherman
TTITLE10=Musical Toys_The Magic Smith
TTITLE11=Mweya
TTITLE12=WestOestlicher Diwan
EXTD=YEAR: 2000
EXTT0=
EXTT1=
EXTT2=
EXTT3=
EXTT4=
EXTT5=
EXTT6=
EXTT7=
EXTT8=
EXTT9=
EXTT10=
EXTT11=
EXTT12=
PLAYORDER=
